<svg width="66" height="66" viewBox="0 0 66 66" fill="none" xmlns="http://www.w3.org/2000/svg">
<path d="M28.1115 23.6887C25.9787 24.9964 24.0611 26.7668 22.3942 28.7787C20.4626 31.1722 18.8754 33.9075 17.7198 36.8601C18.242 38.555 18.728 40.2908 19.0422 42.0748M28.1115 23.6887L18.55 42.163M28.1115 23.6887L26.1058 33.8328L26.1058 33.8328L26.1045 33.8397C25.9159 34.8687 26.5271 35.6217 27.2909 35.8097C27.6648 35.9017 28.0802 35.8588 28.4376 35.6399C28.8015 35.4171 29.0614 35.0393 29.1683 34.5443L29.1683 34.5444L29.17 34.5358L31.831 21.0815C31.9703 20.4558 31.7362 19.859 31.3441 19.4786C30.9518 19.0981 30.3402 18.8848 29.7363 19.1515C28.6799 19.5824 27.6547 20.1063 26.6649 20.7084C25.9534 14.0715 23.5676 7.63017 19.8355 2.39268L28.1115 23.6887ZM19.0422 42.0748C19.0423 42.0753 19.0424 42.0757 19.0425 42.0762L18.55 42.163M19.0422 42.0748C19.0421 42.0743 19.0421 42.0739 19.042 42.0735L18.55 42.163M19.0422 42.0748C19.1984 42.9368 18.7041 43.8493 17.8243 44.0466L17.8181 44.048L17.8181 44.048C16.9553 44.2301 16.1207 43.5799 15.9666 42.719M18.55 42.163C18.6667 42.8043 18.2929 43.4291 17.7149 43.5587C17.1634 43.6751 16.5697 43.2508 16.4587 42.6307M15.9666 42.719C15.9666 42.7191 15.9666 42.7191 15.9666 42.7192L16.4587 42.6307M15.9666 42.719C15.9666 42.7189 15.9666 42.7188 15.9665 42.7188L16.4587 42.6307M15.9666 42.719C14.5561 34.8771 10.3899 27.4374 4.20698 23.4287M16.4587 42.6307C15.0018 34.53 10.6333 26.8016 4.08783 22.7616L4.20698 23.4287M4.20698 23.4287L7.62384 42.5577L7.62461 42.562C8.50333 47.7457 13.2439 51.1796 17.7335 50.0768L17.7351 50.0764C18.6378 49.858 19.4419 50.5203 19.6054 51.3877L19.609 51.4064L19.6111 51.4253C19.6733 51.9867 19.5519 52.4582 19.2484 52.8183C18.9577 53.1631 18.5523 53.3428 18.1692 53.444C17.7835 53.5459 17.3668 53.582 16.9992 53.6005C16.8355 53.6088 16.689 53.6135 16.5547 53.6179C16.3635 53.6241 16.197 53.6295 16.0409 53.643L16.0195 53.6448L15.998 53.6449C10.4218 53.6477 5.61595 49.1908 4.54765 43.1947M4.20698 23.4287C4.01827 23.3063 3.82768 23.1872 3.63523 23.0713L4.54765 43.1947M4.54765 43.1947L4.54769 43.1949L5.03989 43.107M4.54765 43.1947L17.8527 50.5624C18.4256 50.4237 18.9932 50.8391 19.1141 51.4803C19.2855 53.0268 17.7094 53.0791 16.5603 53.1173C16.355 53.1241 16.1634 53.1305 15.9977 53.1449C10.7018 53.1476 6.07268 48.9037 5.03989 43.107M4.54765 43.1947L5.03989 43.107M4.54765 43.1947L0.534357 20.7295M5.03989 43.107L1.02538 20.6349M1.02538 20.6349L0.535986 20.7374C0.535436 20.7347 0.534894 20.7321 0.534357 20.7295M1.02538 20.6349C0.839729 19.7481 1.70869 18.9487 2.45863 19.3005M1.02538 20.6349L0.533168 20.7228L0.534357 20.7295M0.534357 20.7295C0.405521 20.0995 0.650298 19.5082 1.05127 19.1365C1.45228 18.7648 2.06729 18.5687 2.66347 18.8444M2.45863 19.3005L2.65712 18.8416C2.65923 18.8425 2.66135 18.8435 2.66347 18.8444M2.45863 19.3005C3.55267 19.7737 4.61264 20.3519 5.63309 21.0177C5.65421 20.8334 5.67653 20.6495 5.70006 20.4659M2.45863 19.3005L2.671 18.8479C2.66849 18.8467 2.66598 18.8455 2.66347 18.8444M2.66347 18.8444C3.70954 19.2972 4.7232 19.8428 5.70006 20.4659M5.70006 20.4659C6.55431 13.7994 8.99304 7.5689 12.8696 2.31573M5.70006 20.4659C5.85626 20.5655 6.01152 20.6671 6.16582 20.7707C6.98143 14.0932 9.4019 7.8568 13.2721 2.61233M12.8696 2.31573L16.3657 1.00024C15.1677 0.986481 14.0378 1.57325 13.2721 2.61233M12.8696 2.31573L13.2721 2.61233M12.8696 2.31573C12.8697 2.31564 12.8697 2.31554 12.8698 2.31544L13.2721 2.61233M20.1328 26.4256L20.1321 26.4265C18.5642 28.337 17.1978 30.4454 16.0746 32.7104C14.2435 28.8342 11.7163 25.3493 8.60388 22.6313C9.16015 15.9894 11.5327 9.5482 15.3245 4.41118C15.5982 4.0407 15.9533 3.85907 16.3292 3.86995L16.3292 3.87003L16.3384 3.87013C16.7119 3.87408 17.0808 4.06565 17.3425 4.43564L17.3433 4.4367C21.0492 9.64626 23.3009 16.1539 23.7264 22.8066C22.4385 23.893 21.2301 25.0948 20.1328 26.4256Z" fill="#00365F" stroke="#00365F"/>
<path d="M15.148 18.584C16.5417 18.5586 16.5541 16.2556 15.1594 16.2137C15.148 16.2137 11.6297 16.173 11.6192 16.173C10.2254 16.1984 10.2131 18.5014 11.6078 18.5433C11.6192 18.5433 15.1375 18.584 15.148 18.584Z" fill="#00365F"/>
<path d="M19.7032 21.8416L16.1745 21.8024C14.7584 21.8754 14.7594 24.113 16.1535 24.1728L19.6823 24.2119C21.0821 24.2008 21.1065 21.8844 19.7032 21.8416Z" fill="#00365F"/>
<path d="M15.1919 12.6271C15.2023 12.6271 18.3926 12.6631 18.4021 12.6631C19.7954 12.6377 19.8096 10.334 18.4126 10.2927C18.4021 10.2927 15.2118 10.2567 15.2023 10.2567C13.8091 10.2816 13.7948 12.5852 15.1919 12.6271Z" fill="#00365F"/>
<path d="M58.2415 18.1349C62.7421 21.1934 65.5 26.4391 65.5 32.0524C65.5 33.3535 65.354 34.6146 65.0648 35.7994C64.8888 36.5238 64.2791 37.0543 63.5545 37.0555C63.5532 37.0555 63.5518 37.0555 63.5505 37.0555L63.5511 36.5555C62.8616 36.566 62.3293 35.7994 62.5211 35.0603L58.2415 18.1349ZM58.2415 18.1349C57.9391 15.7591 55.857 13.9981 53.2645 13.8445C52.5348 12.2537 51.209 11.3241 49.7942 11.2097C48.3759 11.095 46.9641 11.8079 46.0882 13.3077C44.5688 13.1921 43.0705 13.7052 41.979 14.6239C40.871 15.5563 40.1612 16.9292 40.3108 18.4973C36.0659 21.6105 33.5689 26.593 33.5689 32.0519V32.074L33.5708 32.0959C33.5895 32.3075 33.5992 32.5649 33.6104 32.8638C33.6167 33.0327 33.6235 33.2148 33.6327 33.4094C33.6573 33.9286 33.6987 34.5097 33.7992 35.0423C33.8972 35.5615 34.0633 36.1049 34.3833 36.4963C34.55 36.7 34.7648 36.8705 35.0363 36.9655C35.308 37.0607 35.6015 37.0681 35.9055 37.001L35.924 36.9969L35.9421 36.9915C36.8019 36.7325 37.2403 35.7933 37.0342 34.9431C35.8603 29.9018 37.838 24.5579 41.7408 21.5298C42.6807 22.4327 43.89 22.9167 45.1097 23.0399C45.3341 26.2922 47.1978 28.2174 49.315 28.357C51.4645 28.4988 53.4779 26.7812 53.9112 23.5143C55.2008 23.2819 56.4463 22.6234 57.3191 21.5228C61.1933 24.5644 63.2146 29.9288 62.0356 34.9406L58.2415 18.1349ZM52.5837 20.2156L52.5837 20.2155L52.5704 20.2138C51.8838 20.1262 51.3716 20.4728 51.091 20.9607C50.8335 21.4083 50.7616 21.9758 50.8475 22.4938C50.8406 23.2352 50.6528 23.8993 50.3786 24.3653C50.0896 24.8564 49.7704 25.0334 49.534 25.0334C49.2977 25.0334 48.9786 24.8564 48.6896 24.3651C48.4113 23.8919 48.2221 23.2144 48.2208 22.4595C48.2261 22.3069 48.244 22.1473 48.2645 21.9641C48.2684 21.9291 48.2725 21.8932 48.2765 21.8563C48.3007 21.6364 48.3253 21.384 48.3154 21.1368C48.3054 20.8878 48.2597 20.6113 48.1195 20.3528C47.9766 20.089 47.7537 19.8778 47.4483 19.7323C47.0467 19.5172 46.6658 19.5592 46.3864 19.6108C46.305 19.6259 46.2349 19.6403 46.1724 19.6532C45.9931 19.6901 45.8766 19.7141 45.7361 19.7024L45.7155 19.7007H45.6948C44.6335 19.7007 43.7812 19.1836 43.5018 18.533C43.3297 18.0602 43.4749 17.6425 43.8711 17.2962C44.288 16.9319 44.962 16.6813 45.6973 16.6706C45.8611 16.6715 46.04 16.7014 46.2638 16.7419C46.2749 16.7439 46.2861 16.7459 46.2975 16.748C46.4988 16.7844 46.7448 16.829 46.984 16.8322C47.2466 16.8357 47.5468 16.7915 47.8253 16.607C48.1046 16.422 48.3026 16.1356 48.4377 15.768L48.4378 15.768L48.4417 15.7568C48.5835 15.3406 48.7818 15.0223 48.989 14.816C49.1972 14.6088 49.3883 14.5373 49.5345 14.5373C49.6984 14.5373 49.914 14.6254 50.1423 14.8824C50.3682 15.1367 50.5742 15.5246 50.7026 16.0202C50.852 16.6337 51.2391 16.9907 51.7116 17.1464C52.1256 17.2828 52.5752 17.2562 52.9278 17.2046C53.6059 17.2204 54.2081 17.4331 54.6136 17.7472C55.0213 18.0629 55.2044 18.4524 55.1543 18.8617L55.1424 18.9591C55.0913 19.2101 54.8456 19.5553 54.3613 19.8443C53.8547 20.1465 53.2011 20.3113 52.5837 20.2156Z" fill="#00365F" stroke="#00365F"/>
<path d="M61.49 37.5589L61.7656 37.5423L60.7741 36.7328C59.9841 36.0877 59.0698 35.9713 58.091 36.1041C57.1432 36.2327 56.0665 36.605 54.8927 37.0108L54.8616 37.0216L54.8616 37.0216C52.5079 37.8356 49.3507 38.9248 45.3738 38.9248C41.8658 38.9248 38.0347 38.0794 34.594 37.3187L34.5939 37.3186L34.5577 37.3106C31.9351 36.7309 29.5333 36.2001 27.5023 36.0781C25.4651 35.9558 23.681 36.2355 22.3969 37.406L61.49 37.5589ZM61.49 37.5589C62.0784 38.5195 62.2992 39.8934 62.2992 41.7697V48.7314V48.7425L62.2987 48.7536C62.0618 54.0944 59.5385 58.2422 55.7318 61.07C51.9362 63.8896 46.8781 65.39 41.5443 65.4999L41.534 65.5001L41.5237 65.4999C36.1924 65.3892 31.1337 63.8894 27.3372 61.0704C23.5297 58.2432 21.0051 54.0958 20.7693 48.7535L20.7689 48.7425V48.7314V41.7697C20.7689 39.9145 21.2888 38.4154 22.3967 37.4061L61.49 37.5589ZM39.6322 61.9956C32.4454 61.4568 25.8418 57.7768 24.223 51.0005C28.463 56.0671 35.0139 58.5794 41.5303 58.5802C48.0927 58.5811 54.6916 56.035 58.9317 50.9019C58.7997 51.5059 58.6119 52.1027 58.3688 52.6893L58.238 53.0049C55.4469 59.4754 47.3768 62.5761 39.6322 61.9956ZM58.2779 45.6443L58.3794 45.6273C56.1875 50.6902 51.4195 53.6621 46.0784 54.7149C40.4827 55.8179 34.3498 54.7918 30.0927 51.9338L30.0913 51.9329C26.3392 49.4316 23.9938 46.1365 23.9017 41.7642C23.9022 41.0537 24.0213 40.6268 24.1352 40.3767C24.243 40.14 24.3567 40.0369 24.4182 39.981C24.4196 39.9798 24.4209 39.9787 24.4221 39.9775L24.4228 39.9769C24.8169 39.6174 25.5401 39.4223 26.6347 39.4223C28.5337 39.4223 31.156 39.9992 33.9604 40.6199L33.9606 40.62L34.0034 40.6295C37.5085 41.4037 41.5421 42.2947 45.3728 42.2947C49.8495 42.2947 53.3193 41.0953 55.8096 40.2345L55.8221 40.2302L55.8223 40.2302C56.5929 39.9635 57.3476 39.7038 57.9609 39.5514C58.2684 39.4749 58.5168 39.4316 58.7004 39.4229C58.8257 39.417 58.8814 39.4294 58.8962 39.4326C58.9026 39.4457 58.9109 39.4645 58.9206 39.4905C58.9602 39.5963 59.0006 39.7596 59.0357 39.9801C59.1051 40.4171 59.1418 41.0041 59.1406 41.6348C59.1395 42.2635 59.1006 42.9191 59.0245 43.4904C58.9464 44.0766 58.8353 44.5229 58.7141 44.7668L58.2779 45.6443Z" fill="#00365F" stroke="#00365F"/>
<path d="M34.3356 41.7455C28.487 41.9604 28.4893 52.0237 34.3356 52.2374C40.1833 52.0226 40.1828 41.9593 34.3356 41.7455ZM34.3356 49.8666C31.3139 49.7729 31.3134 44.208 34.3356 44.1153C37.3582 44.209 37.3563 49.7739 34.3356 49.8666Z" fill="#00365F"/>
</svg>
