<svg width="64" height="64" viewBox="0 0 64 64" fill="none" xmlns="http://www.w3.org/2000/svg">
<g clip-path="url(#clip0_209_602)">
<path d="M53.3333 16H42.6667V10.6667C42.6667 7.73333 40.2667 5.33333 37.3333 5.33333H26.6667C23.7333 5.33333 21.3333 7.73333 21.3333 10.6667V16H10.6667C7.73334 16 5.33334 18.4 5.33334 21.3333V53.3333C5.33334 56.2667 7.73334 58.6667 10.6667 58.6667H53.3333C56.2667 58.6667 58.6667 56.2667 58.6667 53.3333V21.3333C58.6667 18.4 56.2667 16 53.3333 16ZM26.6667 10.6667H37.3333V16H26.6667V10.6667ZM53.3333 53.3333H10.6667V21.3333H53.3333V53.3333Z" fill="#00365F"/>
<path d="M34.6667 26.6667H29.3333V34.6667H21.3333V40H29.3333V48H34.6667V40H42.6667V34.6667H34.6667V26.6667Z" fill="#00365F"/>
</g>
<defs>
<clipPath id="clip0_209_602">
<rect width="64" height="64" fill="white"/>
</clipPath>
</defs>
</svg>
