<svg width="64" height="64" viewBox="0 0 64 64" fill="none" xmlns="http://www.w3.org/2000/svg">
<g clip-path="url(#clip0_209_629)">
<path d="M59.92 13.8667C58.6667 13.2267 57.36 12.6933 56 12.24V44.32C52.96 43.2267 49.84 42.6667 46.6667 42.6667C41.6 42.6667 36.5867 44.1067 32 46.88V14.6133C27.68 12.1333 22.6934 10.6667 17.3334 10.6667C12.56 10.6667 8.05335 11.84 4.08002 13.8667C3.20002 14.2933 2.66669 15.2267 2.66669 16.2133V48.4267C2.66669 49.9733 3.92002 51.0667 5.33335 51.0667C5.76002 51.0667 6.18669 50.96 6.61335 50.7467C9.84002 49.0667 13.4667 48 17.3334 48C22.8534 48 27.9467 50.1867 32 53.3333C36.0534 50.1867 41.1467 48 46.6667 48C50.5334 48 54.16 49.0667 57.3867 50.7733C57.8134 50.9867 58.24 51.0933 58.6667 51.0933C60.0534 51.0933 61.3334 50 61.3334 48.4533V16.2133C61.3334 15.2267 60.8 14.2933 59.92 13.8667ZM26.6667 44.32C23.6267 43.2267 20.5067 42.6667 17.3334 42.6667C14.16 42.6667 11.04 43.2267 8.00002 44.32V17.8933C10.96 16.64 14.08 16 17.3334 16C20.5334 16 23.7067 16.6667 26.6667 17.92V44.32ZM50.6667 1.33333L37.3334 14.6667V40L50.6667 28V1.33333Z" fill="#00365F"/>
</g>
<defs>
<clipPath id="clip0_209_629">
<rect width="64" height="64" fill="white"/>
</clipPath>
</defs>
</svg>
