<svg width="48" height="48" viewBox="0 0 48 48" fill="none" xmlns="http://www.w3.org/2000/svg">
<path d="M46.6667 0L46.24 0.0799999L32 5.6L16 0L0.96 5.06667C0.4 5.25333 0 5.73333 0 6.34667V46.6667C0 47.4133 0.586667 48 1.33333 48L1.76 47.92L16 42.4L32 48L47.04 42.9333C47.6 42.7467 48 42.2667 48 41.6533V1.33333C48 0.586667 47.4133 0 46.6667 0ZM18.6667 6.58667L29.3333 10.32V41.4133L18.6667 37.68V6.58667ZM5.33333 9.22667L13.3333 6.53333V37.7333L5.33333 40.8267V9.22667ZM42.6667 38.7733L34.6667 41.4667V10.2933L42.6667 7.2V38.7733Z" fill="#00365F"/>
</svg>
