<svg width="54" height="56" viewBox="0 0 54 56" fill="none" xmlns="http://www.w3.org/2000/svg">
<path d="M27 0.582169C12.28 0.582169 0.333313 12.8654 0.333313 28C0.333313 43.1347 12.28 55.4179 27 55.4179C41.72 55.4179 53.6666 43.1347 53.6666 28C53.6666 12.8654 41.72 0.582169 27 0.582169ZM27 49.9343C15.24 49.9343 5.66665 40.0913 5.66665 28C5.66665 15.9087 15.24 6.06574 27 6.06574C38.76 6.06574 48.3333 15.9087 48.3333 28C48.3333 40.0913 38.76 49.9343 27 49.9343ZM29.3733 25.5324C24.6266 23.9148 22.3333 22.9003 22.3333 20.323C22.3333 17.5264 25.2933 16.5119 27.16 16.5119C30.6533 16.5119 31.9333 19.2263 32.2266 20.1859L36.44 18.3489C36.04 17.1425 34.2533 13.1121 29.3466 12.2348V8.80752H24.68V12.2622C17.7466 13.7976 17.6933 20.0763 17.6933 20.3779C17.6933 26.6017 23.6933 28.3564 26.6266 29.4532C30.84 30.9886 32.7066 32.3869 32.7066 35.019C32.7066 38.1172 29.9066 39.4333 27.4266 39.4333C22.5733 39.4333 21.1866 34.3061 21.0266 33.7029L16.6 35.5399C18.28 41.5444 22.68 43.1621 24.6533 43.6556V47.1925H29.32V43.7927C30.7066 43.5459 37.3733 42.175 37.3733 34.9641C37.4 31.1531 35.7733 27.8081 29.3733 25.5324Z" fill="#00365F"/>
</svg>
