<svg width="64" height="64" viewBox="0 0 64 64" fill="none" xmlns="http://www.w3.org/2000/svg">
<g clip-path="url(#clip0_209_634)">
<path d="M57.0933 30.88L33.0933 6.88001C32.1333 5.92001 30.8 5.33334 29.3333 5.33334H10.6666C7.73331 5.33334 5.33331 7.73334 5.33331 10.6667V29.3333C5.33331 30.8 5.91998 32.1333 6.90665 33.12L30.9066 57.12C31.8666 58.08 33.2 58.6667 34.6666 58.6667C36.1333 58.6667 37.4666 58.08 38.4266 57.0933L57.0933 38.4267C58.08 37.4667 58.6666 36.1333 58.6666 34.6667C58.6666 33.2 58.0533 31.84 57.0933 30.88ZM34.6666 53.36L10.6666 29.3333V10.6667H29.3333V10.64L53.3333 34.64L34.6666 53.36Z" fill="#00365F"/>
<path d="M17.3333 21.3333C19.5425 21.3333 21.3333 19.5425 21.3333 17.3333C21.3333 15.1242 19.5425 13.3333 17.3333 13.3333C15.1242 13.3333 13.3333 15.1242 13.3333 17.3333C13.3333 19.5425 15.1242 21.3333 17.3333 21.3333Z" fill="#00365F"/>
<path d="M23.7333 33.4667C23.7333 34.9867 24.3467 36.32 25.3333 37.3333L34.6667 46.6667L44 37.3333C44.9867 36.3467 45.6 34.96 45.6 33.4667C45.6 30.4533 43.1467 28 40.1333 28C38.6133 28 37.2533 28.6133 36.2667 29.6L34.6667 31.2L33.0667 29.6267C32.08 28.6133 30.6933 28 29.2 28C26.1867 28 23.7333 30.4533 23.7333 33.4667Z" fill="#00365F"/>
</g>
<defs>
<clipPath id="clip0_209_634">
<rect width="64" height="64" fill="white"/>
</clipPath>
</defs>
</svg>
