<svg width="54" height="53" viewBox="0 0 54 53" fill="none" xmlns="http://www.w3.org/2000/svg">
<path d="M35 22.5164C35 21.0085 36.2 19.7747 37.6667 19.7747C39.1333 19.7747 40.3333 21.0085 40.3333 22.5164C40.3333 24.0244 39.1333 25.2582 37.6667 25.2582C36.2 25.2582 35 24.0244 35 22.5164ZM16.3333 19.7747H29.6667V14.2911H16.3333V19.7747ZM53.6667 15.662V34.7722L46.1467 37.3495L41.6667 52.6761H27V47.1925H21.6667V52.6761H7.00001C7.00001 52.6761 0.333344 29.4806 0.333344 21.1455C0.333344 12.8105 6.89334 6.06574 15 6.06574H28.3333C30.76 2.74818 34.6267 0.582169 39 0.582169C41.2133 0.582169 43 2.41916 43 4.69484C43 5.27062 42.8933 5.79156 42.68 6.28508C42.3067 7.21729 41.9867 8.28658 41.8267 9.43813L47.88 15.662H53.6667ZM48.3333 21.1455H45.6667L36.3333 11.5493C36.3333 9.76714 36.5733 8.0124 37.0267 6.3125C34.44 6.99794 32.3333 8.97203 31.4533 11.5493H15C9.85334 11.5493 5.66668 15.8539 5.66668 21.1455C5.66668 26.3001 8.92001 39.3784 11.0267 47.1925H16.3333V41.7089H32.3333V47.1925H37.6933L41.8267 33.0723L48.3333 30.824V21.1455Z" fill="#00365F"/>
</svg>
